<?xml version="1.0" encoding="UTF-8"?>
<!DOCTYPE svg PUBLIC "-//W3C//DTD SVG 1.1//EN" "http://www.w3.org/Graphics/SVG/1.1/DTD/svg11.dtd">
<!-- Creator: CorelDRAW 2021 (64-Bit) -->
<svg xmlns="http://www.w3.org/2000/svg" xml:space="preserve" width="32px" height="32px" version="1.1" shape-rendering="geometricPrecision" text-rendering="geometricPrecision" image-rendering="optimizeQuality" fill-rule="evenodd" clip-rule="evenodd"
viewBox="0 0 5 5"
 xmlns:xlink="http://www.w3.org/1999/xlink"
 xmlns:xodm="http://www.corel.com/coreldraw/odm/2003">
 <g id="Layer_x0020_1">
  <metadata id="CorelCorpID_0Corel-Layer"/>
  <rect fill="none" width="5" height="5"/>
  <g id="_2213878143568">
   <path fill="#E6E6E6" fill-rule="nonzero" d="M3.88 1.22c0.17,0.17 0.17,0.44 0,0.6l0 0c-0.13,0.14 -0.34,0.17 -0.51,0.08l-0.51 0.51c0.14,0.22 0.13,0.51 -0.03,0.72 0.21,0.15 0.83,0.56 0.98,0.4 0.05,-0.04 0.04,-0.15 -0.02,-0.3 -0.07,-0.19 -0.21,-0.43 -0.41,-0.68 -0.11,-0.14 0.09,-0.29 0.2,-0.16 0.27,0.34 0.74,1.04 0.39,1.35 -0.31,0.28 -0.73,0.4 -1.16,0.36 -0.26,-0.02 -0.53,-0.11 -0.79,-0.25l0 0.33c0.22,0 0.18,0.25 0.03,0.25l-1.46 0c-0.16,0 -0.16,-0.25 0,-0.25l0.1 0 0.78 -0.77c-0.59,-0.66 -0.76,-1.67 -0.12,-2.3 0.3,-0.3 1,0.14 1.34,0.4 0.13,0.11 -0.02,0.31 -0.15,0.21 -0.26,-0.2 -0.5,-0.34 -0.7,-0.41 -0.41,-0.15 -0.42,0.06 -0.23,0.44 0.08,0.16 0.19,0.33 0.33,0.51 0.21,-0.17 0.51,-0.18 0.74,-0.03l0.51 -0.51c-0.09,-0.16 -0.06,-0.37 0.07,-0.5l0 0c0.17,-0.17 0.46,-0.17 0.62,0l0 0zm-2.11 2.96l0 -0.5c-0.04,-0.03 -0.08,-0.06 -0.11,-0.09l-0.6 0.59 0.71 0zm1.68 -0.41c-0.76,-0.24 -1.92,-1.37 -2.16,-2.14 -0.23,0.55 -0.01,1.22 0.43,1.67 0.46,0.46 1.15,0.7 1.73,0.47zm-0.82 -0.8c0.11,-0.15 0.1,-0.35 -0.03,-0.48l0 0c-0.14,-0.13 -0.35,-0.15 -0.5,-0.04 0.16,0.18 0.35,0.36 0.53,0.52zm0.81 -1.33c0.08,0.08 0.19,0.08 0.26,0l0 0c0.07,-0.06 0.07,-0.17 0,-0.24l0 0c-0.07,-0.07 -0.19,-0.07 -0.26,0l0 0c-0.07,0.07 -0.06,0.18 0,0.24z"/>
   <path fill="#FC842C" fill-rule="nonzero" d="M3.39 0.85c-0.16,0.04 -0.23,-0.2 -0.07,-0.24 0.72,-0.19 1.37,0.46 1.18,1.16 -0.04,0.16 -0.29,0.09 -0.24,-0.07 0.14,-0.51 -0.35,-0.99 -0.87,-0.85z"/>
  </g>
 </g>
</svg>
