<?xml version="1.0" encoding="UTF-8"?>
<!DOCTYPE svg PUBLIC "-//W3C//DTD SVG 1.1//EN" "http://www.w3.org/Graphics/SVG/1.1/DTD/svg11.dtd">
<!-- Creator: CorelDRAW 2021 (64-Bit) -->
<svg xmlns="http://www.w3.org/2000/svg" xml:space="preserve" width="32px" height="32px" version="1.1" shape-rendering="geometricPrecision" text-rendering="geometricPrecision" image-rendering="optimizeQuality" fill-rule="evenodd" clip-rule="evenodd"
viewBox="0 0 6.64 6.64"
 xmlns:xlink="http://www.w3.org/1999/xlink"
 xmlns:xodm="http://www.corel.com/coreldraw/odm/2003">
 <g id="Layer_x0020_1">
  <metadata id="CorelCorpID_0Corel-Layer"/>
  <rect fill="none" width="6.64" height="6.64"/>
  <path fill="#E6E6E6" d="M1.27 1.32c1.51,-0.09 2.64,-0.09 4.14,0 0.43,0.02 0.74,0.35 0.77,0.77 0.09,0.97 0.09,1.48 0,2.46 -0.03,0.42 -0.34,0.74 -0.77,0.77 -1.5,0.08 -2.63,0.08 -4.14,0 -0.42,-0.03 -0.73,-0.35 -0.76,-0.77 -0.09,-0.98 -0.09,-1.49 0,-2.46 0.03,-0.42 0.34,-0.75 0.76,-0.77zm1.29 0.77l1.9 1.2 -1.9 1.2 0 -2.4z"/>
 </g>
</svg>
